<?xml version="1.0" encoding="utf-8"?>
<!-- Generator: Adobe Illustrator 19.2.0, SVG Export Plug-In . SVG Version: 6.00 Build 0)  -->
<svg version="1.1" id="Ebene_1" xmlns="http://www.w3.org/2000/svg" xmlns:xlink="http://www.w3.org/1999/xlink" x="0px" y="0px"
	 viewBox="0 0 208.3 79.7" style="enable-background:new 0 0 208.3 79.7;" xml:space="preserve">
<path d="M94.5,32.3c-0.5,3.3-0.2,4.1,2,4.1c2.1,0,2.7-0.9,3.2-4.6c0.5-3.4,0.2-4.2-1.8-4.2C95.7,27.7,95,28.5,94.5,32.3L94.5,32.3z
	 M105.8,32.3c-0.9,6.1-3.4,8.2-9.5,8.2c-6.2,0-8.8-2.3-7.9-8.7c0.8-6.2,3.3-8.3,9.6-8.3C104.1,23.6,106.7,26,105.8,32.3"/>
<path d="M114.1,32.3c-0.5,3.3-0.2,4.1,2,4.1c2.1,0,2.7-0.9,3.2-4.6c0.5-3.4,0.2-4.2-1.8-4.2C115.3,27.7,114.6,28.5,114.1,32.3
	L114.1,32.3z M125.4,32.3c-0.9,6.1-3.4,8.2-9.5,8.2c-6.2,0-8.8-2.3-7.9-8.7c0.8-6.2,3.3-8.3,9.6-8.3C123.7,23.6,126.3,26,125.4,32.3
	"/>
<path d="M133.6,34.7c-0.2,1,0.1,1.3,1.4,1.3h1.4l0.3,4c-0.9,0.5-3.3,0.7-4.3,0.7c-3.4,0-5.2-1.8-4.9-4.6l2.6-18.6h5.9L133.6,34.7"/>
<path d="M144.6,36.4c0.8,0.1,1.5,0.1,2,0.1c2.3-0.1,3-0.8,3.6-4.7c0.4-3,0.2-3.6-1-3.6s-2.4,0.6-3.6,1.6L144.6,36.4z M146.6,22.1
	c-0.1,1.4-0.4,2.7-1,4.1c1.6-1.5,3.7-2.7,6-2.7c3.9,0,5.5,2.5,4.6,8.6c-0.7,5.1-2.8,8.4-9,8.4c-2.4,0-7-0.5-9-1.3l3.1-21.9h5.9
	L146.6,22.1"/>
<path d="M164.6,32.3c-0.5,3.3-0.2,4.1,2,4.1c2.1,0,2.7-0.9,3.2-4.6c0.5-3.4,0.2-4.2-1.8-4.2C165.8,27.7,165.1,28.5,164.6,32.3
	L164.6,32.3z M175.9,32.3c-0.9,6.1-3.4,8.2-9.5,8.2c-6.2,0-8.8-2.3-7.9-8.7c0.8-6.2,3.3-8.3,9.6-8.3C174.3,23.6,176.8,26,175.9,32.3
	"/>
<polyline points="194.3,40.2 188.7,40.2 186.1,33.7 181.6,40.2 175.5,40.2 181.5,31.9 178.2,24 183.7,24 186.1,30.1 190.4,24 
	196.4,24 190.7,31.9 194.3,40.2 "/>
<path d="M81,55.2c1.3,0,1.8-0.3,2-1.7c0.2-1.2-0.2-1.4-1.5-1.4h-2l-0.4,3.1C79.1,55.2,81,55.2,81,55.2z M80.2,60.6
	c1.6,0,2.1-0.3,2.3-1.8c0.2-1.4-0.2-1.8-1.6-1.8h-2.1l-0.5,3.6H80.2z M77.1,50.1c1.4-0.1,2.6-0.1,4.5-0.1c3.1,0,4.4,0.7,4,3.3
	c-0.3,1.7-0.9,2.6-2.5,2.7v0.1c1.9,0.1,2.4,1.4,2.1,3.4c-0.4,2.5-1.6,3.1-4.5,3.1c-2.5,0-3.8,0-5.3-0.1L77.1,50.1"/>
<path d="M90.1,56.4c-0.5,3.2-0.1,4.1,1.8,4.1s2.6-0.9,3.1-4.3c0.5-3.3,0.1-4.1-1.8-4.1C91.3,52.1,90.6,53,90.1,56.4L90.1,56.4z
	 M97.8,56.4c-0.7,4.9-2.3,6.3-6,6.3c-3.8,0-5.3-1.5-4.6-6.6c0.7-4.8,2.2-6.3,6-6.3C97,49.9,98.5,51.5,97.8,56.4"/>
<path d="M102.1,60.5c0.6,0,1.2,0,1.6,0c2.1,0,2.9-0.6,3.4-4.3c0.5-3.5,0.1-4.1-2-4.1h-1.9L102.1,60.5z M100.8,50.1
	c1.3-0.1,3.1-0.2,4.4-0.2c4,0,5.5,1.5,4.8,6.5c-0.8,5.4-2.3,6.3-6.3,6.3c-1.5,0-3.2-0.1-4.7-0.2L100.8,50.1"/>
<path d="M116.2,52.3c-0.7,0-1,0.2-1,1l-0.3,1.9h4.9l-0.3,1.9h-4.9l-0.3,2.4c-0.1,0.7,0.1,0.9,0.8,0.9h4.6l-0.1,2
	c-1.6,0.2-3.6,0.2-5.4,0.2c-2.1,0-3-1.2-2.7-3l1-7.1c0.2-1.5,1.2-2.4,3-2.4c2,0,4.1,0,5.7,0.2l-0.3,2L116.2,52.3"/>
<path d="M132.1,61.6c-0.1,0.6-0.4,0.9-1,0.9h-1.5c-0.6,0-0.8-0.3-1-0.9l-2.5-6.6c-0.2-0.5-0.4-1.3-0.5-1.9h-0.2
	c0,0.6-0.1,1.3-0.1,1.9l-1,7.4h-2.6l1.6-11.5c0.1-0.6,0.4-0.9,1-0.9h1.5c0.6,0,0.8,0.3,1,0.9l2.4,6.4c0.2,0.6,0.5,1.3,0.6,2h0.2
	c0-0.7,0-1.3,0.1-2l1-7.3h2.6L132.1,61.6"/>
<path d="M137.4,56.9c-1.9-0.8-2.3-2-2.1-3.7c0.4-2.8,1.9-3.3,4.8-3.3c1.3,0,2.8,0.1,4.1,0.5l-0.3,1.9c-1.1,0-2.5-0.1-3.9-0.1
	c-1.3,0-1.8,0-2,1.2c-0.1,0.8,0.1,1,1,1.4l2.2,0.9c2,0.8,2.4,1.8,2.1,3.7c-0.4,2.8-1.6,3.5-4.9,3.5c-0.9,0-2.5-0.1-4.3-0.5l0.3-2
	c2.3,0.1,3.3,0.1,3.9,0.1c1.6,0,2.1-0.2,2.3-1.3c0.1-0.8-0.1-1-0.9-1.3L137.4,56.9"/>
<path d="M149.8,52.3c-0.7,0-1,0.2-1,1l-0.3,1.9h4.9l-0.3,1.9h-4.9l-0.3,2.4c-0.1,0.7,0.1,0.9,0.8,0.9h4.6l-0.1,2
	c-1.6,0.2-3.6,0.2-5.4,0.2c-2.1,0-3-1.2-2.7-3l1-7.1c0.2-1.5,1.2-2.4,3-2.4c2,0,4.1,0,5.7,0.2l-0.3,2L149.8,52.3"/>
<path d="M160.1,52.3c-0.7,0-1,0.2-1,1l-0.3,1.9h4.9l-0.3,1.9h-4.9l-0.3,2.4c-0.1,0.7,0.1,0.9,0.8,0.9h4.6l-0.1,2
	c-1.6,0.2-3.6,0.2-5.4,0.2c-2.1,0-3-1.2-2.7-3l1-7.1c0.2-1.5,1.2-2.4,3-2.4c2,0,4.1,0,5.7,0.2l-0.3,2L160.1,52.3"/>
<path d="M174.4,57.4c0.9-0.1,1.4-0.3,1.5-1.2c0.1-0.8-0.3-0.9-1.4-0.9c-1.4,0-1.8,0.4-2.1,2.2L174.4,57.4z M177.6,62.1
	c-1.1,0.5-2.7,0.6-3.9,0.6c-3.5,0-4.5-1.6-4.2-4.8c0.4-3.6,1.9-4.5,5.1-4.5c3.3,0,4.1,1.2,3.8,3.1c-0.3,1.7-1.4,2.3-3.6,2.5
	l-2.6,0.2c0,1.3,0.7,1.5,1.8,1.5c0.9,0,2.4-0.1,3.4-0.2L177.6,62.1"/>
<path d="M181.1,59.8c0.6,0,1,0.3,0.9,1l-0.1,0.9c-0.1,0.6-0.4,0.9-1,0.9h-0.7c-0.7,0-1-0.3-0.9-1l0.1-0.9c0.1-0.6,0.4-0.9,1-0.9
	H181.1"/>
<path d="M189.8,61.8c-0.2,0.4-0.5,0.7-1,0.7h-2.5c-0.5,0-0.8-0.4-0.9-0.8l-1.8-11.6h2.8l1,8.9c0.1,0.5,0.1,1,0.1,1.5h0.4
	c0.1-0.5,0.3-1,0.5-1.5l3.5-8.9h2.9L189.8,61.8"/>
<path d="M195.4,59.8c0.6,0,1,0.3,0.9,1l-0.1,0.9c-0.1,0.6-0.4,0.9-1,0.9h-0.7c-0.7,0-1-0.3-0.9-1l0.1-0.9c0.1-0.6,0.4-0.9,1-0.9
	H195.4"/>
<polyline points="84.8,22.8 82.4,40.4 75.1,40.4 77.6,22.8 71.3,22.8 72,17.4 92,17.4 91.2,22.8 84.8,22.8 "/>
<path d="M61.5,25.5L35.9,10.7L10.3,25.5v30l0,0l25.5,14.7l0,0l0,0l0,0l0,0l25.6-14.8l0,0l0,0V43.5l0,0l0,0l-5.3-3l5.3-3v-0.1l0,0
	L61.5,25.5L61.5,25.5z M56.2,46.5v5.8L38.5,62.5V38.8l6.3-3.7L39.5,32l-15.9,9.2l5.3,3.1l4.2-2.4v20.6L15.6,52.4V28.6l20.3-11.7
	l20.3,11.7v5.8l-10.7,6.2v6.1l5.4-3.1L56.2,46.5z"/>
</svg>
