<?xml version="1.0" encoding="utf-8"?>
<!-- Generator: Adobe Illustrator 19.2.0, SVG Export Plug-In . SVG Version: 6.00 Build 0)  -->
<svg version="1.1" id="Ebene_1" xmlns="http://www.w3.org/2000/svg" xmlns:xlink="http://www.w3.org/1999/xlink" x="0px" y="0px"
	 viewBox="0 0 57.9 69.7" style="enable-background:new 0 0 57.9 69.7;" xml:space="preserve">
<style type="text/css">
	.st0{fill:url(#SVGID_1_);}
</style>
<linearGradient id="SVGID_1_" gradientUnits="userSpaceOnUse" x1="29.2823" y1="4.0357" x2="29.2823" y2="63.5079">
	<stop  offset="0" style="stop-color:#E64F2D"/>
	<stop  offset="0.5" style="stop-color:#D74126"/>
	<stop  offset="1" style="stop-color:#9B160F"/>
</linearGradient>
<path class="st0" d="M54.9,18.8L29.3,4L3.7,18.8l0,30h0l25.5,14.7l0,0l0,0l0,0l0,0l25.6-14.8l0,0h0V36.8l0,0l0,0l-5.3-3l5.3-3l0-0.1
	h0V18.8z M49.6,39.8v5.8L31.9,55.8l0-23.7l6.3-3.7l-5.3-3.1L17,34.5l5.3,3.1l4.2-2.4v20.6L9,45.7V21.9l20.3-11.7l20.3,11.7v5.8
	l-10.7,6.2v6.1l5.4-3.1L49.6,39.8z"/>
</svg>
